<?xml version="1.0" encoding="utf-8"?>
<svg width="53px" height="63px" viewBox="0 0 53 63" version="1.1" xmlns="http://www.w3.org/2000/svg">
  <g id="Page-1" stroke="none" stroke-width="1" fill="none" fill-rule="evenodd">
    <g id="styleguide-dashboard" transform="translate(-128.000000, -249.000000)" fill-rule="nonzero">
      <g id="logo-hor-copy-4" transform="translate(42.000000, 249.000000)">
        <g id="isologotipo">
          <g id="logo-/-iso" transform="translate(85.909091, 0.000000)">
            <g id="isotipo" transform="translate(0.483314, 0.000000)">
              <path d="M22.8384968,62.4241614 L22.0915348,61.7210601 C22.0373734,61.6702215 16.5743829,56.5115981 11.1452848,49.335712 C3.82087025,39.6531171 0.106661392,31.1667247 0.106661392,24.1127848 L0.106661392,22.8986392 C0.106661392,10.4252373 10.3036234,0.277120253 22.8378323,0.277120253 C28.335712,0.277120253 33.6412025,2.25583861 37.7764082,5.8490981 L37.858481,5.94014241 C38.126962,6.32492089 38.2130222,6.93332278 37.7687658,7.35996835 C37.5674051,7.55501582 37.3152057,7.65868671 37.0407437,7.65868671 C36.7038133,7.65868671 36.4482911,7.49985759 36.4001108,7.46829114 L36.3492722,7.42941456 C32.6054905,4.1784019 27.807057,2.38808544 22.8378323,2.38808544 C11.4918513,2.38808544 2.26082278,11.5888766 2.26082278,22.8986392 L2.26082278,24.1127848 C2.26082278,30.2439873 5.40151899,37.7136076 11.5955222,46.3136392 C16.1364399,52.6186234 20.9973418,57.6406804 22.8378323,59.470538 C24.6773259,57.6416772 29.5365665,52.6212816 34.0804747,46.3116456 C40.2744778,37.7109494 43.4151741,30.2419937 43.4151741,24.1124525 L43.4175,24.0649367 C43.4513924,23.7127215 43.767057,23.1890506 44.4993987,23.1890506 C45.2443671,23.1890506 45.5457437,23.724019 45.5666772,24.0835443 C45.5676741,31.1663924 41.8537975,39.6527848 34.5290506,49.3353797 C29.1002848,56.5109335 23.636962,61.6702215 23.5824684,61.7213924 L22.8384968,62.4241614 Z" id="Shape" style="fill: rgb(255, 255, 255);"/>
              <g id="Group" transform="translate(15.284810, 6.645570)" fill="#25394B">
                <path d="M13.163212,0.590126582 C12.6375475,3.02240506 10.9691772,4.96723101 8.67612342,5.62713608 C9.54602848,4.73297468 10.1354905,3.18887658 10.4292247,2.34787975 C10.6332437,1.75941456 9.70286392,1.50887658 9.49884494,2.09169304 C9.20677215,2.9277057 8.58308544,4.65422468 7.64971519,5.18852848 L7.64971519,0.767231013 C7.64971519,0.145870253 6.68677215,0.145870253 6.68677215,0.767231013 L6.68677215,5.22973101 C5.78596519,4.73397152 5.08219937,2.80243671 4.83598101,2.09169304 C4.63196203,1.50887658 3.70158228,1.75941456 3.90560127,2.34787975 C4.27775316,3.41083861 4.87518987,4.91871835 5.85275316,5.7364557 C3.46466772,5.18886076 1.68564873,2.97655063 1.16962025,0.590126582 C1.03903481,-0.0176107595 0.110316456,0.239905063 0.240901899,0.846313291 C0.938022152,4.06675633 3.44506329,6.47278481 6.68643987,6.79509494 L6.68643987,15.1648576 C6.68643987,15.7862184 7.64938291,15.7862184 7.64938291,15.1648576 L7.64938291,6.82300633 C10.8731487,6.67181962 13.4306962,3.91257911 14.0935918,0.84664557 C14.2245095,0.239905063 13.2954589,-0.0176107595 13.163212,0.590126582 Z" id="Shape" style="fill: rgb(255, 255, 255);"/>
                <path d="M1.16962025,35.1351266 C1.69528481,32.7025158 3.36498418,30.7573576 5.65837025,30.0974525 C4.78846519,30.9919462 4.19900316,32.5353797 3.90560127,33.3767089 C3.70158228,33.9651741 4.63196203,34.2160443 4.83598101,33.6332278 C5.1280538,32.7972152 5.75174051,31.0703639 6.68511076,30.5360601 L6.68511076,34.9573576 C6.68511076,35.5790506 7.6480538,35.5790506 7.6480538,34.9573576 L7.6480538,30.4951899 C8.54886076,30.9906171 9.25096519,32.9224842 9.50050633,33.6332278 C9.70286392,34.2160443 10.6332437,33.9651741 10.4292247,33.3767089 C10.0570728,32.3140823 9.45963608,30.8065348 8.48207278,29.9878006 C10.8701582,30.5353956 12.6475158,32.748038 13.163212,35.1351266 C13.2951266,35.7418671 14.2241772,35.4846835 14.0935918,34.8786076 C13.3964715,31.6581646 10.8894304,29.2521361 7.6480538,28.9301582 L7.6480538,20.5600633 C7.6480538,19.9390348 6.68511076,19.9390348 6.68511076,20.5600633 L6.68511076,28.9015823 C3.46134494,29.0531013 0.903797468,31.8130063 0.240901899,34.8786076 C0.110316456,35.4846835 1.03903481,35.7418671 1.16962025,35.1351266 Z" id="Shape" style="fill: rgb(255, 255, 255);"/>
              </g>
              <path d="M4.49506329,27.9506013 C6.86487342,27.1896835 9.3835443,27.6618513 11.1024209,29.3182595 C9.89292722,29.0125633 8.26077532,29.2743987 7.3855538,29.440538 C6.77349684,29.5568354 7.02170886,30.4885443 7.62712025,30.3739082 C8.49702532,30.2084335 10.3039557,29.8854589 11.2359968,30.4274051 C9.95938291,31.1643987 8.68310127,31.9013924 7.40681962,32.6377215 C6.8681962,32.9490665 7.34966772,33.7830854 7.88829114,33.4727373 C9.17620253,32.7287658 10.4637816,31.9851266 11.751693,31.2414873 C11.7729589,32.2685601 10.4524842,33.8428956 9.95938291,34.4134177 C9.55799051,34.8809335 10.2401582,35.5621044 10.6465348,35.0899367 C11.3808703,34.2369778 12.3880063,32.9653481 12.608307,31.71 C13.3283544,34.0518987 12.2999525,36.6978323 10.4913608,38.3382911 C10.0311551,38.7553006 10.718307,39.4311551 11.1785127,39.0148101 C13.6187658,36.8015032 14.4478006,33.4265506 13.1077215,30.4589715 C15.5233861,29.0637342 17.9393829,27.6691614 20.3563766,26.2739241 C20.8933386,25.9632437 20.4118671,25.1288924 19.8749051,25.4392405 C17.4658861,26.8301582 15.0581962,28.2200791 12.6488449,29.6103323 C10.9073734,26.894288 7.23802215,26.0586076 4.25117089,27.0178956 C3.66237342,27.2076266 3.90427215,28.1403323 4.49506329,27.9506013 Z" id="Shape" style="fill: rgb(255, 255, 255);"/>
              <g id="Group" transform="translate(3.655063, 4.984177)">
                <path d="M6.83662975,5.69425633 C8.68110759,7.36528481 9.53140823,9.78294304 8.95523734,12.0985918 C8.61598101,10.8990665 7.57262658,9.61713608 6.9918038,8.9419462 C6.58542722,8.46977848 5.90325949,9.15128165 6.3046519,9.61846519 C6.88248418,10.2896677 8.06606013,11.6935443 8.06273734,12.7691297 C6.78612342,12.0324684 5.50984177,11.295807 4.23356013,10.5588133 C3.69493671,10.2481329 3.21346519,11.0831487 3.75208861,11.3931646 C5.04,12.1371361 6.32757911,12.8811076 7.61549051,13.6244146 C6.73727848,14.1560601 4.71170886,13.7985285 3.97238924,13.658307 C3.36697785,13.5433386 3.11876582,14.4750475 3.72916139,14.5913449 C4.83731013,14.8013449 6.4405538,15.0375949 7.63841772,14.5996519 C5.97004747,16.394288 3.16594937,16.8272468 0.840332278,16.0809494 C0.249541139,15.8915506 0.00797468354,16.8239241 0.59710443,17.0139873 C3.73580696,18.0214557 7.07221519,17.0521994 8.97218354,14.4072627 C11.3878481,15.8025 13.8038449,17.1967405 16.2195095,18.5919778 C16.7581329,18.9029905 17.2396044,18.0689715 16.7026424,17.7579589 C14.2936234,16.3677057 11.8859335,14.976788 9.47824367,13.5871994 C10.9585443,10.7196361 9.84873418,7.12471519 7.5244462,5.01740506 C7.06357595,4.60106013 6.37642405,5.27658228 6.83662975,5.69425633 Z" id="Shape" style="fill: rgb(255, 255, 255);"/>
                <path d="M41.795981,1.04268987 C39.9515032,2.71405063 39.1012025,5.13137658 39.6773734,7.44702532 C40.0166297,6.24783228 41.0596519,4.96556962 41.640807,4.29037975 C42.0475158,3.81887658 42.7293513,4.49971519 42.3279589,4.96756329 C41.7501266,5.63843354 40.5665506,7.04231013 40.5698734,8.11822785 C41.8464873,7.38156646 43.122769,6.64457278 44.3990506,5.90791139 C44.9376741,5.59689873 45.4191456,6.43191456 44.8805222,6.74193038 C43.5926108,7.48623418 42.3046994,8.22987342 41.0171203,8.97318038 C41.8953323,9.50482595 43.9205696,9.14762658 44.6585601,9.00740506 C45.2656329,8.89177215 45.5138449,9.82414557 44.9031171,9.94044304 C43.7949684,10.1501108 42.1903956,10.386693 40.9938608,9.94841772 C42.662231,11.7430538 45.4663291,12.1760127 47.7922785,11.4300475 C48.3830696,11.2403165 48.6246361,12.1730222 48.0338449,12.3624209 C44.8968038,13.3698892 41.5607278,12.4009652 39.6607595,9.75602848 C37.2447627,11.1509335 34.8290981,12.5455063 32.4134335,13.9404114 C31.8748101,14.2517563 31.3933386,13.4174051 31.9303006,13.1067247 C34.3393196,11.715807 36.7470095,10.3252215 39.1543671,8.93563291 C37.6740665,6.06806962 38.7838766,2.47314873 41.1081646,0.366170886 C41.5693671,-0.0505063291 42.256519,0.62568038 41.795981,1.04268987 Z" id="Shape" style="fill: rgb(255, 255, 255);"/>
                <path d="M30.7570253,33.3537816 C28.9125475,31.6824209 28.0622468,29.2644304 28.6384177,26.9484494 C28.9776741,28.148307 30.0210285,29.4309019 30.6018513,30.1050949 C31.0085601,30.5772627 31.6903956,29.8967563 31.2890032,29.4292405 C30.7111709,28.7583703 29.5275949,27.3541614 29.5309177,26.2782437 C30.8075316,27.0149051 32.0841456,27.7518987 33.3600949,28.4885601 C33.8987184,28.7999051 34.3801899,27.964557 33.8415665,27.6535443 C32.5536551,26.9102373 31.2660759,26.1669304 29.9781646,25.4232911 C30.8577057,24.8916456 32.8799525,25.2485127 33.6212658,25.3893987 C34.2266772,25.5043671 34.4748892,24.5726582 33.8628323,24.456693 C32.7563449,24.2463608 31.1517722,24.0097785 29.9552373,24.4480538 C31.6236076,22.6530854 34.4293671,22.2204589 36.7536551,22.9667563 C37.3444462,23.1564873 37.5860127,22.2234494 36.9952215,22.0333861 C33.8581804,21.0259177 30.5221044,21.9951741 28.6221361,24.6401108 C26.2061392,23.2448734 23.7888133,21.8506329 21.3731487,20.4553956 C20.8361867,20.1443829 20.3530538,20.9793987 20.8916772,21.2894146 C23.3006962,22.68 25.7083861,24.0699209 28.1157437,25.4605063 C26.635443,28.3284019 27.7452532,31.9229905 30.0695411,34.0299684 C30.5304114,34.4463133 31.2159019,33.7707911 30.7570253,33.3537816 Z" id="Shape" style="fill: rgb(255, 255, 255);"/>
              </g>
            </g>
          </g>
        </g>
      </g>
    </g>
  </g>
</svg>